<svg version="1.0" xmlns="http://www.w3.org/2000/svg"
 width="300.000000pt" height="124.000000pt" viewBox="0 0 300.000000 124.000000"
 preserveAspectRatio="xMidYMid meet">
<metadata>
Created by potrace 1.10, written by Peter Selinger 2001-2011
</metadata>
<g transform="translate(0.000000,124.000000) scale(0.100000,-0.100000)"
fill="#000000" stroke="none">
<path d="M1006 1192 c-79 -42 -156 -120 -181 -185 -18 -48 -18 -49 3 -92 l21
-43 -135 -180 -136 -180 -91 -23 c-186 -45 -457 -149 -479 -183 -12 -18 -10
-22 17 -34 39 -18 77 -15 245 23 85 19 156 32 159 29 2 -2 -5 -14 -16 -27 -32
-34 -193 -266 -193 -277 0 -6 5 -10 11 -10 6 0 9 7 5 15 -3 8 -1 14 4 12 4 -1
29 24 54 56 25 32 89 105 143 161 l98 103 110 26 c153 36 452 98 500 104 22 2
64 11 95 20 30 8 71 19 90 23 41 11 162 1 154 -12 -3 -5 0 -23 7 -40 11 -27
16 -29 48 -26 20 3 45 8 56 13 13 5 7 -6 -18 -32 -29 -31 -35 -42 -25 -50 33
-26 46 -20 111 46 62 62 72 68 138 84 39 9 75 14 80 11 6 -3 19 2 30 12 11 10
35 19 52 21 18 1 64 5 102 8 39 3 140 6 225 7 l155 1 -55 14 c-40 11 -120 15
-293 16 l-238 2 28 23 c118 98 433 283 583 343 102 41 365 127 370 122 3 -3
-1 -8 -9 -11 -30 -10 -253 -127 -351 -183 -145 -83 -281 -174 -316 -210 -24
-25 -15 -22 56 23 90 56 224 119 455 213 317 128 327 135 308 198 l-9 32 -80
-1 c-55 -1 -116 -11 -199 -33 -117 -32 -360 -125 -371 -142 -10 -18 -44 -9
-60 16 -19 29 -36 32 -55 8 -25 -29 -270 -247 -353 -312 -45 -35 -94 -76 -111
-91 -28 -26 -54 -35 -185 -61 -30 -6 -63 -5 -99 3 l-54 12 64 24 c35 13 78 34
96 48 29 22 31 27 23 55 -13 43 -35 66 -89 90 -65 28 -214 71 -361 104 -69 15
-127 29 -129 31 -2 1 17 34 41 71 25 37 59 94 76 125 l32 57 -18 33 c-25 44
-53 44 -136 0z m105 -8 c17 -16 17 -19 -11 -73 -16 -31 -47 -83 -69 -116 -42
-62 -50 -95 -28 -113 6 -5 75 -24 152 -41 199 -45 345 -94 388 -130 24 -20 18
-59 -13 -76 -62 -33 -140 -63 -205 -77 -91 -21 -129 -30 -132 -29 -2 0 -17 -4
-35 -9 -19 -6 -28 -6 -22 -1 5 6 38 17 74 25 86 21 89 22 135 35 57 16 167 73
179 93 22 36 -26 58 -239 107 -49 11 -106 23 -125 26 -19 3 -48 8 -65 12 -16
3 -37 7 -45 8 -8 1 -39 5 -67 9 -50 7 -54 6 -80 -21 -57 -59 -186 -211 -208
-247 -10 -15 -41 -49 -68 -76 -30 -28 -51 -57 -52 -71 -1 -13 -7 -25 -13 -25
-7 -1 -17 -2 -23 -3 -7 0 -27 -17 -45 -37 -19 -19 -38 -32 -44 -29 -17 10 -11
25 9 25 22 0 101 87 101 111 0 9 10 21 23 28 12 6 81 90 152 187 101 135 129
181 128 202 -2 15 -5 48 -9 73 -7 56 7 86 65 145 33 33 148 104 169 104 3 0
13 -7 23 -16z m1833 -60 c19 -7 21 -38 4 -52 -16 -12 -321 -133 -325 -128 -2
2 43 26 100 54 56 28 111 59 120 70 16 17 16 20 2 32 -13 11 -13 15 -3 21 15
10 79 12 102 3z m-319 -64 c-3 -5 -14 -10 -23 -10 -15 0 -15 2 -2 10 20 13 33
13 25 0z m-60 -20 c-3 -5 -12 -10 -19 -10 -8 0 -39 -11 -70 -25 -31 -14 -56
-22 -56 -20 0 8 99 50 148 64 2 1 0 -3 -3 -9z m-303 -80 c24 -22 40 -25 69
-10 10 6 19 9 19 6 0 -3 -44 -28 -97 -57 -113 -61 -367 -230 -394 -262 -22
-27 -24 -46 -4 -53 26 -11 16 -23 -27 -34 -102 -25 -115 -31 -166 -82 -47 -46
-53 -49 -47 -26 5 21 2 29 -15 38 -12 7 -35 9 -51 6 -16 -3 -29 -1 -29 3 0 8
50 23 125 37 56 11 81 18 91 28 45 43 97 87 144 120 49 35 90 71 288 253 31
29 61 53 65 53 4 0 17 -9 29 -20z m-1207 -166 c190 -30 460 -99 450 -114 -7
-11 -170 -73 -248 -95 -37 -11 -72 -14 -97 -10 -47 8 -313 -11 -399 -29 -33
-7 -61 -11 -61 -10 0 1 33 41 73 87 39 46 92 108 116 137 48 57 36 55 166 34z
m101 -233 c-3 -4 -20 -11 -38 -14 -18 -4 -143 -35 -278 -71 -135 -35 -246 -63
-247 -62 -1 1 18 23 43 48 37 39 53 48 92 53 26 4 56 10 67 15 25 11 176 30
270 33 39 2 76 4 83 5 7 1 11 -2 8 -7z m749 -21 c-3 -5 -12 -10 -18 -10 -7 0
-6 4 3 10 19 12 23 12 15 0z m-1365 -76 c0 -3 -7 -12 -15 -20 -8 -8 -21 -24
-29 -36 -11 -15 -46 -28 -133 -49 -124 -31 -276 -59 -281 -54 -13 12 237 108
378 146 76 20 80 21 80 13z"/>
</g>
</svg>